<svg fill="orange" xmlns="http://www.w3.org/2000/svg" width="800" height="800" viewBox="0 0 59.483 59.482" xml:space="preserve"><path d="M13.077 40.049c7.223 0 13.077-5.854 13.077-13.076S20.3 13.896 13.077 13.896C5.855 13.896 0 19.751 0 26.973s5.855 13.076 13.077 13.076zm-6.223-2.843a.45.45 0 1 1 0-.899.45.45 0 1 1 0 .899zm-2.316-5.622 6.814-2.759.156 7.946a9.523 9.523 0 0 1-6.97-5.187zm8.247-2.967a1.813 1.813 0 0 1-1.814-1.815 1.815 1.815 0 1 1 1.814 1.815zm6.829 7.69a.45.45 0 1 1 .002-.9.45.45 0 0 1-.002.9zm-4.885.449-.16-8.168 7.106 2.878a9.523 9.523 0 0 1-6.946 5.29zm8.645-13.349a.45.45 0 0 1 .449.45.45.45 0 1 1-.9 0 .45.45 0 0 1 .451-.45zm-.781 3.98c0 .323-.018.642-.048.957l-7.347-2.975 4.191-5.1a9.49 9.49 0 0 1 3.204 7.118zM12.502 15.398a.45.45 0 1 1 0 .898.45.45 0 0 1 0-.898zm.575 2.474c1.255 0 2.451.246 3.547.687l-4.149 5.052-4.095-4.496a9.467 9.467 0 0 1 4.697-1.243zM2.05 24.757a.45.45 0 1 1 0-.9.45.45 0 0 1 0 .9zm1.512 2.63c0-2.382.878-4.557 2.324-6.228l4.26 4.678-6.52 2.642a9.601 9.601 0 0 1-.064-1.092z"/><path d="M59.483 18.33c0-7.841-6.355-14.199-14.198-14.199-7.84 0-14.198 6.358-14.198 14.199 0 6.745 4.709 12.38 11.012 13.826l-.862 2.842h-3.432v-2.754a.72.72 0 0 0-.719-.719H26.908a.718.718 0 0 0-.718.719v2.754h-1.37a14.134 14.134 0 0 1-5.694 4.745v.489l4.694-2.44h12.705v16.843h-4.229v-1.409l-13.17-4.694v3.41c0 1.883 1.866 3.41 4.167 3.41h19.443a4.167 4.167 0 0 0 4.167-4.167V34.998h-1.619v-2.47c7.843 0 14.199-6.357 14.199-14.198zM36.367 34.998h-8.739v-2.036h8.741v2.036h-.002zm16.017-6.534a.488.488 0 1 1 0-.976.488.488 0 0 1 0 .976zm-5.305.489-.175-8.869 7.716 3.125a10.345 10.345 0 0 1-7.541 5.744zm9.384-14.496a.488.488 0 1 1 .002.976.488.488 0 0 1-.002-.976zm-.846 4.323c0 .35-.02.697-.052 1.04l-7.978-3.23 4.55-5.537a10.295 10.295 0 0 1 3.48 7.727zM44.662 5.762a.489.489 0 1 1-.001.977.489.489 0 0 1 .001-.977zm.623 2.686c1.362 0 2.665.267 3.853.747l-4.505 5.485-4.448-4.882a10.27 10.27 0 0 1 5.1-1.35zm-11.972 7.475a.488.488 0 1 1-.001-.977.488.488 0 0 1 .001.977zm1.641 2.857c0-2.587.953-4.949 2.526-6.762l4.623 5.079-7.079 2.868c-.045-.388-.07-.784-.07-1.185zm3.574 10.66a.488.488 0 1 1 0-.976.488.488 0 0 1 0 .976zm-2.515-6.103 7.398-2.996.171 8.627a10.339 10.339 0 0 1-7.569-5.631zm8.953-3.222a1.971 1.971 0 1 1 0-3.942 1.971 1.971 0 0 1 0 3.942z"/><path d="M35.808 53.836V38.431H23.995l-5.988 3.112v5.748l15.009 5.349v1.196z"/></svg>